<svg width="128" height="128" viewBox="0 0 128 128" fill="none" xmlns="http://www.w3.org/2000/svg">
<path d="M64 124C97.1371 124 124 97.1371 124 64C124 30.8629 97.1371 4 64 4C30.8629 4 4 30.8629 4 64C4 97.1371 30.8629 124 64 124Z" fill="#FFDE39"/>
<path d="M64 114C91.6142 114 114 91.6142 114 64C114 36.3858 91.6142 14 64 14C36.3858 14 14 36.3858 14 64C14 91.6142 36.3858 114 64 114Z" fill="#FFE8BE"/>
<path d="M64 124C97.1371 124 124 97.1371 124 64C124 30.8629 97.1371 4 64 4C30.8629 4 4 30.8629 4 64C4 97.1371 30.8629 124 64 124Z" fill="#382673"/>
<path d="M64 114C91.6142 114 114 91.6142 114 64C114 36.3858 91.6142 14 64 14C36.3858 14 14 36.3858 14 64C14 91.6142 36.3858 114 64 114Z" fill="#473080"/>
<path d="M84 110H44V92C44 90.9 44.9 90 46 90H82C83.1 90 84 90.9 84 92V110Z" fill="#0CAFE8"/>
<path d="M87 113H41L42 110H86L87 113Z" fill="#0B90D3"/>
<path d="M72 106H56C53.8 106 52 104.2 52 102V99C52 96.8 53.8 95 56 95H72C74.2 95 76 96.8 76 99V102C76 104.2 74.2 106 72 106Z" fill="white"/>
<path d="M58.7998 68.5H69.2998V85H58.7998V68.5Z" fill="#F9A74E"/>
<path opacity="0.2" d="M66.2002 68.5H69.2002V85H66.2002V68.5Z" fill="#382673"/>
<path d="M73 84H55C51.7 84 49 86.7 49 90H79C79 86.7 76.3 84 73 84Z" fill="#FFDE39"/>
<path d="M73 84H68C71.3 84 74 86.7 74 90H79C79 86.7 76.3 84 73 84Z" fill="#FEC632"/>
<path d="M69.1 77H58.9C56.2 77 54 74.8 54 72.1V71H74V72.1C74 74.8 71.8 77 69.1 77Z" fill="#FFDE39"/>
<path d="M70.0001 71V72.1C70.0001 74.8 68.8001 77 66.1001 77H69.1001C71.8001 77 74.0001 74.8 74.0001 72.1V71H70.0001Z" fill="#FEC632"/>
<path d="M81 90H47C47 88.9 47.9 88 49 88H79C80.1 88 81 88.9 81 90Z" fill="#F9A74E"/>
<path opacity="0.2" d="M79 88H74C75.1 88 76 88.9 76 90H81C81 88.9 80.1 88 79 88Z" fill="#382673"/>
<path d="M76 69H52V72C52 73.1 52.9 74 54 74H74C75.1 74 76 73.1 76 72V69Z" fill="#F9A74E"/>
<path d="M76 69H52V72C52 73.1 52.9 74 54 74H74C75.1 74 76 73.1 76 72V69Z" fill="#F9A74E"/>
<path opacity="0.2" d="M71 69L69 72C70 72 70.1 74 69 74H74C75.1 74 76 73.1 76 72V69H71Z" fill="#382673"/>
<path d="M78 37H97V38C97 48.5 88.5 57 78 57" stroke="#F9A74E" stroke-width="4" stroke-miterlimit="10" stroke-linecap="round" stroke-linejoin="round"/>
<path d="M50 37H31V38C31 48.5 39.5 57 50 57" stroke="#FEC632" stroke-width="4" stroke-miterlimit="10" stroke-linecap="round" stroke-linejoin="round"/>
<path d="M72.5 72H55.5C49.1 72 44 66.9 44 60.5V29H84V60.5C84 66.9 78.9 72 72.5 72Z" fill="#FFDE39"/>
<path opacity="0.3" d="M50 32V52" stroke="white" stroke-width="2" stroke-miterlimit="10" stroke-linecap="round" stroke-linejoin="round"/>
<path d="M79 29V60.5C79 66.9 73.9 72 67.5 72H72.5C78.9 72 84 66.9 84 60.5V29H79Z" fill="#FEC632"/>
<path d="M87 29H41L44 32H84L87 29Z" fill="#F9A74E"/>
<path opacity="0.2" d="M81 29L79 32H84L87 29H81Z" fill="#382673"/>
<path d="M88 25H40C38.9 25 38 25.9 38 27C38 28.1 38.9 29 40 29H88C89.1 29 90 28.1 90 27C90 25.9 89.1 25 88 25Z" fill="#FFDE39"/>
<path d="M88 25H82C83.1 25 84 25.9 84 27C84 28.1 83.1 29 82 29H88C89.1 29 90 28.1 90 27C90 25.9 89.1 25 88 25Z" fill="#FEC632"/>
<path opacity="0.3" d="M50 56.3999V58.6999" stroke="white" stroke-width="2" stroke-miterlimit="10" stroke-linecap="round" stroke-linejoin="round"/>
<path d="M48.9 21.4001L49.5 19.9001C49.7 19.5001 50.3 19.5001 50.4 19.9001L51 21.4001C51.5 22.6001 52.4 23.5001 53.6 24.0001L55.1 24.6001C55.5 24.8001 55.5 25.4001 55.1 25.5001L53.6 26.1001C52.4 26.6001 51.5 27.5001 51 28.7001L50.4 30.2001C50.2 30.6001 49.6 30.6001 49.5 30.2001L48.9 28.7001C48.4 27.5001 47.5 26.6001 46.3 26.1001L44.8 25.5001C44.4 25.3001 44.4 24.7001 44.8 24.6001L46.3 24.0001C47.5 23.5001 48.5 22.5001 48.9 21.4001Z" fill="white"/>
<path d="M63.9999 54.4998L68.2999 56.7998C68.8999 57.0998 69.6999 56.5998 69.5999 55.8998L68.6999 50.9998L72.1999 47.5998C72.6999 47.0998 72.3999 46.1998 71.6999 46.0998L66.8999 45.3998L64.6999 40.9998C64.3999 40.3998 63.4999 40.3998 63.1999 40.9998L60.9999 45.3998L56.1999 46.0998C55.4999 46.1998 55.1999 47.0998 55.6999 47.5998L59.1999 50.9998L58.3999 55.7998C58.2999 56.4998 58.9999 56.9998 59.6999 56.6998L63.9999 54.4998Z" fill="#FEC632"/>
<path opacity="0.2" d="M64.784 4C56.8018 4 48.8976 5.56821 41.523 8.61503C34.1483 11.6618 27.4476 16.1276 21.8033 21.7574C16.1589 27.3872 11.6816 34.0707 8.62694 41.4263C5.57226 48.782 4 56.6658 4 64.6275C4.01145 69.8515 4.69979 75.0521 6.0479 80.1001L80.262 6.07716C75.2137 4.72381 70.0115 4.02567 64.784 4ZM85.6241 7.75468L7.74459 85.4337C8.67592 87.9863 9.77821 90.4737 11.044 92.8789L93.1084 11.0258C90.69 9.76925 88.1896 8.67639 85.6241 7.75468ZM122.101 44.6552L44.7601 121.796C46.9299 122.559 49.1413 123.198 51.3837 123.711L124 51.2814C123.493 49.0385 122.859 46.8262 122.101 44.6552Z" fill="#FFF9F6"/>
<path d="M62.2329 96C62.4373 96 62.598 96.1313 62.598 96.2896C62.598 96.4054 62.7197 96.4981 62.8658 96.4981H63.3477C64.0829 96.5019 64.6817 96.9768 64.6866 97.556V97.6293C65.1491 97.6293 65.6116 97.6371 66.0789 97.6409C67.7683 97.6409 69 98.6139 69 99.9575V101.683C69 103.027 67.7683 104 66.0789 104C64.3896 104 65.8348 102.879 65.2732 102.481C64.5204 101.948 63.631 101.964 62.8658 102.481C62.286 102.873 63.6885 104 61.9992 104C60.3098 104 59.0781 103.027 59.0781 101.683V100.901C59.0781 100.901 60.1105 100.671 60.7721 100.523C60.7718 100.562 60.7817 100.598 60.8021 100.632C60.8225 100.665 60.8521 100.693 60.8881 100.712C60.9242 100.73 60.9615 100.74 61.0026 100.741C61.0437 100.742 61.0862 100.73 61.1209 100.71C61.6259 100.425 61.909 100.266 62.414 99.9812C62.4853 99.941 62.527 99.8715 62.527 99.7929C62.527 99.7149 62.4848 99.6446 62.414 99.6047C61.909 99.3202 61.6258 99.1608 61.1208 98.8763C61.0625 98.8398 60.9536 98.8398 60.8881 98.8741C60.8141 98.9139 60.7721 98.9772 60.7711 99.0645C60.7715 99.6341 60.7717 99.9534 60.7721 100.523C60.1105 100.671 59.0781 100.901 59.0781 100.901V99.9575C59.0781 98.6139 60.3098 97.6409 62.004 97.6409C62.6418 97.6332 63.2942 97.6255 63.9563 97.6255V97.5598C63.9563 97.2934 63.6788 97.0772 63.3477 97.0772H62.8658C62.3156 97.0772 61.8677 96.722 61.8677 96.2896C61.8677 96.1313 62.0332 96 62.2329 96ZM66.4197 101.205H66.371C66.1661 101.205 66.0059 101.336 66.0059 101.494C66.0059 101.656 66.1661 101.784 66.371 101.784V102C66.5706 102 66.7849 101.656 66.7849 101.494C66.7849 101.336 66.6193 101.205 66.4197 101.205ZM66.4197 99.8764H66.371C66.1666 99.8764 66.0059 100.008 66.0059 100.166C66.0059 100.328 66.1666 100.456 66.371 100.456H66.4197C66.6193 100.456 66.7849 100.328 66.7849 100.166C66.7849 100.008 66.6193 99.8764 66.4197 99.8764Z" fill="#6FBAFF"/>
<path d="M59 103.993V97.5968H61.7918C62.2978 97.5968 62.7345 97.6905 63.1019 97.8779C63.4715 98.0632 63.7564 98.3224 63.9566 98.6555C64.1567 98.9865 64.2568 99.3717 64.2568 99.811C64.2568 100.252 64.1545 100.639 63.95 100.97C63.7476 101.299 63.4583 101.554 63.0821 101.735C62.7059 101.916 62.2593 102.006 61.7423 102.006H60.6335C60.6335 102.006 60.7361 101.103 60.7721 100.523C60.7718 100.562 60.7817 100.598 60.8021 100.632C60.8227 100.665 60.8524 100.693 60.8881 100.712C60.9238 100.731 60.9617 100.74 61.0026 100.741C61.0435 100.741 61.0861 100.73 61.1209 100.71C61.6259 100.425 61.909 100.266 62.414 99.9812C62.4853 99.941 62.527 99.8715 62.527 99.7929C62.527 99.7151 62.4854 99.6448 62.414 99.6047C61.8689 99.299 61.6647 99.184 61.1208 98.8763C61.0571 98.8407 60.9526 98.8398 60.8881 98.8741C60.8237 98.9085 60.7711 98.9868 60.7711 99.0645C60.7711 99.1423 60.7724 100.484 60.7721 100.523C60.7361 101.103 60.6335 102.006 60.6335 102.006V103.993H59Z" fill="#2A94F4"/>
<path d="M90.4 53.8L91 52.3C91.2 51.9 91.8 51.9 91.9 52.3L92.5 53.8C93 55 93.9 55.9 95.1 56.4L96.6 57C97 57.2 97 57.8 96.6 57.9L95.1 58.5C93.9 59 93 59.9 92.5 61.1L91.9 62.6C91.7 63 91.1 63 91 62.6L90.4 61.1C89.9 59.9 89 59 87.8 58.5L86.3 57.9C85.9 57.7 85.9 57.1 86.3 57L87.8 56.4C89 55.9 90 54.9 90.4 53.8Z" fill="white"/>
<path d="M49.4 81.8L50 80.3C50.2 79.9 50.8 79.9 50.9 80.3L51.5 81.8C52 83 52.9 83.9 54.1 84.4L55.6 85C56 85.2 56 85.8 55.6 85.9L54.1 86.5C52.9 87 52 87.9 51.5 89.1L50.9 90.6C50.7 91 50.1 91 50 90.6L49.4 89.1C48.9 87.9 48 87 46.8 86.5L45.3 85.9C44.9 85.7 44.9 85.1 45.3 85L46.8 84.4C48 83.9 49 82.9 49.4 81.8Z" fill="white"/>
</svg>
