<svg width="128" height="128" viewBox="0 0 128 128" fill="none" xmlns="http://www.w3.org/2000/svg">
<path d="M64 124C97.1371 124 124 97.1371 124 64C124 30.8629 97.1371 4 64 4C30.8629 4 4 30.8629 4 64C4 97.1371 30.8629 124 64 124Z" fill="#382673"/>
<path d="M64 114C91.6142 114 114 91.6142 114 64C114 36.3858 91.6142 14 64 14C36.3858 14 14 36.3858 14 64C14 91.6142 36.3858 114 64 114Z" fill="#473080"/>
<path d="M49 122.1C53.8 123.3 58.8 124 64 124C65.7 124 67.3 123.9 69 123.8V78.4L49 64V122.1Z" fill="#FFDE39"/>
<path d="M59 30V62.3C59 64.7 57.4 66.9 55.1 67.3C51.8 68 49 65.6 49 62.5V30.2C49 27.8 50.6 25.6 52.9 25.2C56.2 24.4 59 26.9 59 30Z" fill="#F9A74E"/>
<path opacity="0.2" d="M58 27L50.1 36.9C49.4 37.8 49 38.9 49 40V54.9C49 57.3 50.6 59.5 52.9 59.9C56.1 60.6 59 58.1 59 55V30C59 28.9 58.6 27.8 58 27Z" fill="#382673"/>
<path d="M69 35.0001C69 36.1001 68.6 37.2001 67.9 38.1001L59 49.2001V62.3001C59 64.7001 57.4 66.9001 55.1 67.3001C51.8 68.0001 49 65.6001 49 62.5001V47.5001C49 46.4001 49.4 45.3001 50.1 44.4001L60.1 31.9001C61.8 29.7001 65 29.4001 67.1 31.1001C68.4 32.0001 69 33.5001 69 35.0001Z" fill="#FEC632"/>
<path opacity="0.1" d="M67.3001 38.8999C57.1001 39.6999 49.1001 48.2999 49.1001 58.6999C49.1001 61.1999 49.6001 63.5999 50.4001 65.7999C51.6001 67.0999 53.3001 67.6999 55.3001 67.2999C57.5001 66.7999 59.0001 64.5999 59.0001 62.2999V49.2999L67.3001 38.8999Z" fill="#382673"/>
<path d="M82.8 69.8C79.7 78.4 70.2 78.5 68.9 78.5C60.7 78.5 54 71.7999 54 63.5999C54 55.3999 60.7 48.7 68.9 48.7C76.3 48.7 80 53 80 53" stroke="#FFDE39" stroke-width="10" stroke-miterlimit="10" stroke-linecap="round" stroke-linejoin="round"/>
<path d="M49 103H69.2C70.2 103 71 102.2 71 101.2V92.8C71 91.8 70.2 91 69.2 91H49V103Z" fill="#0CAFE8"/>
<path d="M47 88H46C45.4 88 45 88.4 45 89V90H48V89C48 88.4 47.6 88 47 88Z" fill="white"/>
<path d="M66.5 98.5C67.3284 98.5 68 97.8284 68 97C68 96.1716 67.3284 95.5 66.5 95.5C65.6716 95.5 65 96.1716 65 97C65 97.8284 65.6716 98.5 66.5 98.5Z" fill="#0B90D3"/>
<path d="M60.5 98.5C61.3284 98.5 62 97.8284 62 97C62 96.1716 61.3284 95.5 60.5 95.5C59.6716 95.5 59 96.1716 59 97C59 97.8284 59.6716 98.5 60.5 98.5Z" fill="#0B90D3"/>
<path opacity="0.2" d="M47 88H46C45.4 88 45 88.4 45 89V90H48V89C48 88.4 47.6 88 47 88Z" fill="#382673"/>
<path d="M46 106H47C48.1 106 49 105.1 49 104V91C49 89.9 48.1 89 47 89H46C44.9 89 44 89.9 44 91V104C44 105.1 44.9 106 46 106Z" fill="white"/>
<path opacity="0.2" d="M47 89H46C45.8 89 45.7 89 45.5 89.1C46.4 89.3 47 90.1 47 91V104C47 104.9 46.4 105.7 45.5 105.9C45.7 105.9 45.8 106 46 106H47C48.1 106 49 105.1 49 104V91C49 89.9 48.1 89 47 89Z" fill="#382673"/>
<path d="M91.2999 32.6001L92.1999 30.3001C92.4999 29.7001 93.3999 29.7001 93.5999 30.3001L94.4999 32.6001C95.1999 34.4001 96.5999 35.8001 98.3999 36.5001L100.7 37.4001C101.3 37.7001 101.3 38.6001 100.7 38.8001L98.3999 39.7001C96.5999 40.4001 95.1999 41.8001 94.4999 43.6001L93.5999 45.9001C93.2999 46.5001 92.3999 46.5001 92.1999 45.9001L91.2999 43.6001C90.5999 41.8001 89.1999 40.4001 87.3999 39.7001L85.0999 38.8001C84.4999 38.5001 84.4999 37.6001 85.0999 37.4001L87.3999 36.5001C89.1999 35.8001 90.5999 34.4001 91.2999 32.6001ZM26.3999 59.5001L26.9999 58.0001C27.1999 57.6001 27.7999 57.6001 27.8999 58.0001L28.4999 59.5001C28.9999 60.7001 29.8999 61.6001 31.0999 62.1001L32.5999 62.7001C32.9999 62.9001 32.9999 63.5001 32.5999 63.6001L30.9999 64.1001C29.7999 64.6001 28.8999 65.5001 28.3999 66.7001L27.7999 68.2001C27.5999 68.6001 26.9999 68.6001 26.8999 68.2001L26.2999 66.7001C25.7999 65.5001 24.8999 64.6001 23.6999 64.1001L22.1999 63.5001C21.7999 63.3001 21.7999 62.7001 22.1999 62.6001L23.6999 62.0001C24.9999 61.6001 25.8999 60.6001 26.3999 59.5001Z" fill="#00C2A9"/>
<path d="M99 67C100.105 67 101 66.1046 101 65C101 63.8954 100.105 63 99 63C97.8954 63 97 63.8954 97 65C97 66.1046 97.8954 67 99 67Z" fill="white"/>
<path d="M36 43C37.1046 43 38 42.1046 38 41C38 39.8954 37.1046 39 36 39C34.8954 39 34 39.8954 34 41C34 42.1046 34.8954 43 36 43Z" fill="white"/>
<path opacity="0.2" d="M64.784 4C56.8018 4 48.8976 5.56821 41.523 8.61503C34.1483 11.6618 27.4476 16.1276 21.8033 21.7574C16.1589 27.3872 11.6816 34.0707 8.62694 41.4263C5.57226 48.782 4 56.6658 4 64.6275C4.01145 69.8515 4.69979 75.0521 6.0479 80.1001L80.262 6.07716C75.2137 4.72381 70.0115 4.02567 64.784 4ZM85.6241 7.75468L7.74459 85.4337C8.67592 87.9863 9.77821 90.4737 11.044 92.8789L93.1084 11.0258C90.69 9.76925 88.1896 8.67639 85.6241 7.75468ZM122.101 44.6552L44.7601 121.796C46.9299 122.559 49.1413 123.198 51.3837 123.711L124 51.2814C123.493 49.0385 122.859 46.8262 122.101 44.6552Z" fill="#D3C9F2"/>
</svg>
