<svg width="62" height="62" viewBox="0 0 62 62" fill="none" xmlns="http://www.w3.org/2000/svg">
<g clip-path="url(#clip0_1601_4454)">
<path d="M30.9 61.8C47.9656 61.8 61.8 47.9656 61.8 30.9C61.8 13.8344 47.9656 0 30.9 0C13.8344 0 0 13.8344 0 30.9C0 47.9656 13.8344 61.8 30.9 61.8Z" fill="#E9573E"/>
<path fill-rule="evenodd" clip-rule="evenodd" d="M23.3659 38.5779L39.1619 38.8009V51.7189L23.2549 51.5979L23.3659 38.5779Z" fill="#F9DCA4"/>
<path fill-rule="evenodd" clip-rule="evenodd" d="M53.4779 51.9929C50.5906 55.0915 47.0955 57.5616 43.2108 59.2489C39.3261 60.9363 35.1353 61.8047 30.8999 61.7999C29.6173 61.7998 28.3359 61.7207 27.0629 61.5629C23.1591 61.0035 19.382 59.7706 15.8999 57.9189C12.9613 56.2834 10.308 54.1809 8.04395 51.6939L9.32695 48.5939L23.2519 42.3819C23.8769 46.1049 31.0659 50.5569 31.0659 50.5569C31.0659 50.5569 38.2859 47.1449 39.1619 42.3459L51.9519 48.6269L53.4779 51.9929Z" fill="#58B0E0"/>
<path opacity="0.11" fill-rule="evenodd" clip-rule="evenodd" d="M39.1648 38.778V42.358C39.1218 42.497 39.0908 42.682 39.0298 42.904C38.9624 43.1376 38.8812 43.367 38.7868 43.591C38.6168 44 37.4418 43.654 37.2188 44.006C31.8438 48.17 25.2308 44.874 23.3638 38.761L39.1648 38.778Z" fill="black"/>
<path fill-rule="evenodd" clip-rule="evenodd" d="M31.1292 8.43188C52.4102 8.43188 44.1162 43.6979 31.1292 43.6979C18.8632 43.6979 9.84823 8.43188 31.1292 8.43188Z" fill="#FFE8BE"/>
<path fill-rule="evenodd" clip-rule="evenodd" d="M18.3648 24.0449C15.2948 25.3849 17.9048 31.7319 19.8368 31.7029C19.0355 29.2199 18.5412 26.6481 18.3648 24.0449ZM44.1398 24.0449C47.2098 25.3839 44.5998 31.7319 42.6688 31.7029C43.4696 29.2198 43.9636 26.648 44.1398 24.0449Z" fill="#F9DCA4"/>
<path fill-rule="evenodd" clip-rule="evenodd" d="M18.7001 26.9971C18.7001 26.9971 15.4201 25.2411 16.3581 18.9911C17.2961 12.7411 22.4711 9.55209 24.3831 10.0211C20.8662 15.001 18.8901 20.9035 18.7001 26.9971ZM43.8401 26.9971C43.8401 26.9971 47.1201 25.2411 46.1831 18.9911C45.2461 12.7411 40.0611 9.69109 38.1491 10.1611C41.6748 15.0841 43.6551 20.9447 43.8401 26.9971Z" fill="#969696"/>
<path fill-rule="evenodd" clip-rule="evenodd" d="M23.2548 41.241L31.0658 50.557L24.7538 54.11L19.9258 43.519L23.2548 41.241ZM39.1618 41.421L31.0658 50.557L37.5898 54.11L42.3718 43.391L39.1618 41.421Z" fill="#434955"/>
<path fill-rule="evenodd" clip-rule="evenodd" d="M31.1282 35.6719C29.5182 37.6989 23.4612 38.4489 23.2432 34.8129C24.6552 35.4629 25.8382 35.3099 27.9372 33.6299C30.0372 31.9509 31.1472 33.9349 31.1472 33.9349C31.1472 33.9349 32.3302 31.9509 34.4302 33.6299C36.5292 35.3099 37.7122 35.4619 39.1242 34.8129C38.9062 38.4489 32.7382 37.6989 31.1282 35.6719Z" fill="#969696"/>
<path d="M26.1992 30.7441C27.9593 30.7441 29.3862 29.3172 29.3862 27.5571C29.3862 25.797 27.9593 24.3701 26.1992 24.3701C24.4391 24.3701 23.0122 25.797 23.0122 27.5571C23.0122 29.3172 24.4391 30.7441 26.1992 30.7441Z" fill="#E6E6E6"/>
<path fill-rule="evenodd" clip-rule="evenodd" d="M36.2932 30.2969C37.9752 29.7489 37.6752 29.9509 37.3412 30.0889C35.9232 30.2969 35.5682 30.2219 35.2452 30.0889C35.5775 30.2262 35.9336 30.2969 36.2932 30.2969ZM43.8182 26.2349L40.0002 26.9979L39.8902 27.0229L39.8702 26.9129C39.8052 26.5512 39.6855 26.2016 39.5152 25.8759C39.3436 25.5486 39.1235 25.2492 38.8622 24.9879L38.7852 24.9119C38.4638 24.6088 38.0901 24.3665 37.6822 24.1969C36.7917 23.8308 35.7927 23.8308 34.9022 24.1969C34.3161 24.4394 33.8036 24.8309 33.4156 25.3326C33.0276 25.8343 32.7775 26.4287 32.6902 27.0569L32.6772 27.1499H29.8122L29.8002 27.0569C29.7463 26.6686 29.6294 26.2916 29.4542 25.9409C29.2784 25.5883 29.0467 25.2665 28.7682 24.9879L28.6922 24.9119C28.182 24.4321 27.5443 24.1094 26.8554 23.9826C26.1666 23.8558 25.4558 23.9302 24.8082 24.1969C24.2467 24.4292 23.7524 24.7985 23.3703 25.271C22.9883 25.7435 22.7307 26.3042 22.6212 26.9019L22.6012 27.0129L22.4912 26.9879L18.7182 26.2299L18.6802 26.9869L22.5582 28.1769L22.6182 28.1969L22.6302 28.2569C22.7625 28.9351 23.0859 29.5613 23.5622 30.0619L23.6282 30.1279C23.9667 30.466 24.3683 30.7344 24.8102 30.9179C25.699 31.2849 26.697 31.2853 27.5862 30.9189C28.0277 30.7353 28.4289 30.4669 28.7672 30.1289L28.7682 30.1279L28.7692 30.1269C29.3167 29.5806 29.6751 28.8735 29.7922 28.1089L29.8062 28.0169H32.6842L32.6982 28.1089C32.7555 28.4884 32.8729 28.8564 33.0462 29.1989C33.2062 29.5134 33.411 29.8031 33.6542 30.0589L33.7222 30.1279C34.0607 30.466 34.4623 30.7344 34.9042 30.9179C35.793 31.2849 36.791 31.2853 37.6802 30.9189C38.1213 30.7352 38.5222 30.4668 38.8602 30.1289L38.8622 30.1279C39.1148 29.8751 39.3291 29.5857 39.4982 29.2709C39.6662 28.958 39.7872 28.6221 39.8572 28.2739L39.8692 28.2129L39.9292 28.1929L43.8392 26.9979L43.8172 26.2369L43.8182 26.2349ZM27.2472 25.0249C27.5657 25.1574 27.8565 25.3487 28.1042 25.5889H28.1062L28.1382 25.6199C28.6517 26.1337 28.9402 26.8304 28.9402 27.5569C28.9402 28.2834 28.6517 28.9801 28.1382 29.4939L28.1362 29.4959C27.6224 30.0092 26.9259 30.2975 26.1997 30.2975C25.4735 30.2975 24.7769 30.0092 24.2632 29.4959L24.2312 29.4639V29.4619C23.9912 29.2138 23.8002 28.9228 23.6682 28.6039C23.391 27.9334 23.391 27.1804 23.6682 26.5099C23.9466 25.8381 24.4803 25.3043 25.1522 25.0259C25.823 24.7486 26.5764 24.7476 27.2472 25.0249ZM38.1542 25.6969C38.006 25.5489 37.8409 25.419 37.6622 25.3099C37.2631 25.067 36.8066 24.9346 36.3395 24.9263C35.8724 24.9181 35.4116 25.0342 35.0042 25.2629C34.8271 25.3627 34.662 25.4825 34.5122 25.6199C34.4237 25.7005 34.3411 25.7874 34.2652 25.8799C34.1073 26.0707 33.977 26.2828 33.8782 26.5099C33.8407 26.5954 33.8079 26.6828 33.7802 26.7719C33.7009 27.026 33.6607 27.2907 33.6612 27.5569C33.6612 27.6429 33.6662 27.7289 33.6742 27.8139C33.7004 28.0863 33.7693 28.3529 33.8782 28.6039C33.9133 28.6856 33.9527 28.7654 33.9962 28.8429C34.1145 29.0536 34.2612 29.2471 34.4322 29.4179V29.4199L34.4752 29.4619L34.4952 29.4799L34.5122 29.4959C34.5943 29.5713 34.6812 29.6415 34.7722 29.7059C34.9834 29.8564 35.216 29.9743 35.4622 30.0559C35.9257 30.2088 36.4225 30.2303 36.8975 30.1181C37.3725 30.0058 37.8071 29.7641 38.1532 29.4199L38.1562 29.4179L38.2062 29.3659C38.6764 28.8676 38.9342 28.2058 38.9248 27.5208C38.9155 26.8357 38.6398 26.1812 38.1562 25.6959L38.1542 25.6969Z" fill="#434955"/>
<path d="M36.2931 30.312C37.8146 30.312 39.0481 29.0785 39.0481 27.557C39.0481 26.0355 37.8146 24.802 36.2931 24.802C34.7715 24.802 33.5381 26.0355 33.5381 27.557C33.5381 29.0785 34.7715 30.312 36.2931 30.312Z" fill="#E6E6E6"/>
<path d="M26.1988 30.312C27.7204 30.312 28.9538 29.0785 28.9538 27.557C28.9538 26.0355 27.7204 24.802 26.1988 24.802C24.6773 24.802 23.4438 26.0355 23.4438 27.557C23.4438 29.0785 24.6773 30.312 26.1988 30.312Z" fill="#E6E6E6"/>
</g>
<defs>
<clipPath id="clip0_1601_4454">
<rect width="61.8" height="61.8" fill="white"/>
</clipPath>
</defs>
</svg>
