<svg width="62" height="63" viewBox="0 0 62 63" fill="none" xmlns="http://www.w3.org/2000/svg">
<g clip-path="url(#clip0_1646_5771)">
<path fill-rule="evenodd" clip-rule="evenodd" d="M31.2297 8.85889C52.5796 8.85889 44.2598 44.3667 31.2297 44.3667C18.924 44.3667 9.87987 8.85889 31.2297 8.85889Z" fill="#FFE8BE"/>
<path d="M62 62.5929V31.481V0.369141H31H0V31.481V62.5929H31H62Z" fill="#485A69"/>
<path fill-rule="evenodd" clip-rule="evenodd" d="M52.9678 53.4314C52.3578 51.9593 52.4722 50.4934 47.5854 48.2088C45.285 47.6631 39.3488 46.8808 38.2272 44.7855C37.6594 43.7263 37.7958 42.2331 37.7958 39.4572L24.824 39.3132C24.824 42.1103 24.9333 43.6014 24.2983 44.6486C23.1044 46.619 15.3344 48.0558 12.9236 48.7002C8.81735 50.5316 9.28686 51.6452 8.74512 53.1364C11.6106 56.1031 15.0362 58.4671 18.822 60.0906C22.6078 61.714 26.678 62.5643 30.7948 62.5917C34.9116 62.6192 38.9927 61.8233 42.7996 60.2505C46.6066 58.6777 50.0633 56.3596 52.9678 53.4314Z" fill="#F9DCA4"/>
<path fill-rule="evenodd" clip-rule="evenodd" d="M52.9681 53.4315C52.3902 52.0381 52.4615 50.6496 48.3271 48.5684C48.0982 48.4134 47.8481 48.2923 47.5847 48.209C47.0951 48.0922 46.2203 47.921 45.7869 47.8344C44.6161 55.0163 26.4375 64.813 16.7372 47.7871C15.6939 48.0328 13.5078 48.5443 12.9239 48.7003C8.81767 50.5318 9.28719 51.6464 8.74544 53.1365L7.22949 62.5919H30.7951H43.0081H54.2809L52.9681 53.4315Z" fill="#9F82BB"/>
<mask id="mask0_1646_5771" style="mask-type:luminance" maskUnits="userSpaceOnUse" x="8" y="47" width="45" height="16">
<path fill-rule="evenodd" clip-rule="evenodd" d="M52.9678 53.4315C52.3899 52.0381 52.4611 50.6496 48.3268 48.5684C48.0979 48.4134 47.8478 48.2923 47.5844 48.209C47.0948 48.0922 46.22 47.921 45.7866 47.8344C44.6158 55.0163 26.4372 64.813 16.7369 47.7871C15.6935 48.0328 13.5075 48.5443 12.9236 48.7003C8.81735 50.5318 9.28686 51.6464 8.74512 53.1365V62.5919H18.5019H30.7948H43.0078H52.9678V53.4315Z" fill="white"/>
</mask>
<g mask="url(#mask0_1646_5771)">
<path d="M15.173 53.1336C16.0379 53.1336 16.739 52.43 16.739 51.5619C16.739 50.6939 16.0379 49.9902 15.173 49.9902C14.3081 49.9902 13.6069 50.6939 13.6069 51.5619C13.6069 52.43 14.3081 53.1336 15.173 53.1336Z" fill="white"/>
<path d="M16.7291 59.4124C17.594 59.4124 18.2952 58.7088 18.2952 57.8407C18.2952 56.9727 17.594 56.269 16.7291 56.269C15.8642 56.269 15.1631 56.9727 15.1631 57.8407C15.1631 58.7088 15.8642 59.4124 16.7291 59.4124Z" fill="white"/>
<path d="M24.13 59.7315C24.9949 59.7315 25.6961 59.0279 25.6961 58.1598C25.6961 57.2918 24.9949 56.5881 24.13 56.5881C23.2651 56.5881 22.564 57.2918 22.564 58.1598C22.564 59.0279 23.2651 59.7315 24.13 59.7315Z" fill="white"/>
<path d="M31.9288 63.3692C32.7938 63.3692 33.4949 62.6656 33.4949 61.7975C33.4949 60.9295 32.7938 60.2258 31.9288 60.2258C31.0639 60.2258 30.3628 60.9295 30.3628 61.7975C30.3628 62.6656 31.0639 63.3692 31.9288 63.3692Z" fill="white"/>
<path d="M39.7643 59.2352C40.6292 59.2352 41.3303 58.5315 41.3303 57.6635C41.3303 56.7955 40.6292 56.0918 39.7643 56.0918C38.8994 56.0918 38.1982 56.7955 38.1982 57.6635C38.1982 58.5315 38.8994 59.2352 39.7643 59.2352Z" fill="white"/>
<path d="M47.2023 59.3973C48.0672 59.3973 48.7683 58.6936 48.7683 57.8256C48.7683 56.9576 48.0672 56.2539 47.2023 56.2539C46.3374 56.2539 45.6362 56.9576 45.6362 57.8256C45.6362 58.6936 46.3374 59.3973 47.2023 59.3973Z" fill="white"/>
<path d="M47.7291 52.8426C48.594 52.8426 49.2952 52.1389 49.2952 51.2709C49.2952 50.4029 48.594 49.6992 47.7291 49.6992C46.8642 49.6992 46.1631 50.4029 46.1631 51.2709C46.1631 52.1389 46.8642 52.8426 47.7291 52.8426Z" fill="white"/>
</g>
<path fill-rule="evenodd" clip-rule="evenodd" d="M45.3845 37.5896C46.7521 38.1057 48.2565 38.1255 49.637 37.6456C51.0176 37.1656 52.1875 36.2162 52.9439 34.9617L56.6559 36.7267C56.6559 36.7267 54.0374 42.9058 48.311 41.5999C46.1781 41.1136 44.8287 40.5427 43.5968 40.3091C39.5858 39.5489 38.1893 43.386 42.5885 44.4483C45.0113 45.0322 48.1615 44.406 48.927 42.9601C50.2914 44.7987 48.0411 47.9592 46.0326 47.8837C40.5198 47.6742 37.7499 45.2789 37.784 42.1547C37.8191 38.8985 40.2048 35.897 45.3845 37.5896Z" fill="#E9573E"/>
<path fill-rule="evenodd" clip-rule="evenodd" d="M24.3365 39.8098C24.1166 40.179 24.0496 40.62 24.1499 41.0382C24.2436 42.252 24.09 43.4723 23.6984 44.6246C21.2324 48.799 34.7009 55.8229 39.996 46.2054C40.6882 45.1643 37.6604 44.2088 38.6336 40.9999C38.6904 40.8624 38.7125 40.7129 38.6977 40.5648C38.6829 40.4167 38.6318 40.2745 38.5489 40.1511C38.4661 40.0276 38.354 39.9267 38.2228 39.8573C38.0915 39.7879 37.9452 39.7522 37.7969 39.7534C37.7969 39.7534 32.4356 44.2652 24.3365 39.8098Z" fill="#E9573E"/>
<mask id="mask1_1646_5771" style="mask-type:luminance" maskUnits="userSpaceOnUse" x="23" y="39" width="18" height="13">
<path fill-rule="evenodd" clip-rule="evenodd" d="M24.3365 39.8098C24.1166 40.179 24.0496 40.62 24.1499 41.0382C24.2436 42.252 24.09 43.4723 23.6984 44.6246C21.2324 48.799 34.7009 55.8229 39.996 46.2054C40.6882 45.1643 37.6604 44.2088 38.6336 40.9999C38.6904 40.8624 38.7125 40.7129 38.6977 40.5648C38.6829 40.4167 38.6318 40.2745 38.5489 40.1511C38.4661 40.0276 38.354 39.9267 38.2228 39.8573C38.0915 39.7879 37.9452 39.7522 37.7969 39.7534C37.7969 39.7534 32.4356 44.2652 24.3365 39.8098Z" fill="white"/>
</mask>
<g mask="url(#mask1_1646_5771)">
<path opacity="0.11" fill-rule="evenodd" clip-rule="evenodd" d="M37.799 39.4131L39.4955 40.2699C39.5356 41.1459 39.5848 44.9015 40.1998 45.8449C38.3869 50.0234 26.019 49.2763 24.2744 39.25L37.799 39.4131Z" fill="black"/>
</g>
<path fill-rule="evenodd" clip-rule="evenodd" d="M19.1719 24.718C16.2043 26.0169 18.7284 32.1789 20.5964 32.1517C19.8214 29.7414 19.3429 27.2449 19.1719 24.718ZM43.6478 24.717C46.6174 26.0179 44.0922 32.1789 42.2242 32.1517C42.9992 29.741 43.4773 27.2443 43.6478 24.717Z" fill="#F9DCA4"/>
<path fill-rule="evenodd" clip-rule="evenodd" d="M31.2148 9.09448C39.965 9.09448 43.6318 15.337 43.8566 22.5531C44.1646 32.4304 38.1632 44.1301 31.2158 44.1301C24.6345 44.1301 18.4687 32.0297 18.8429 22.0517C19.1037 15.051 22.6692 9.09448 31.2148 9.09448Z" fill="#FFE8BE"/>
<path fill-rule="evenodd" clip-rule="evenodd" d="M38.4852 17.0698C38.3106 17.8028 35.3009 23.3858 30.7763 25.2626C31.5348 23.9365 32.7527 22.3507 32.841 20.8324C30.672 24.0272 21.8224 27.2129 16.5885 25.6552C15.4137 6.19876 30.2797 6.66796 31.2839 6.72233C32.2892 6.66796 47.1923 6.37999 46.0175 25.8345C40.1636 24.737 38.1621 20.2535 38.4852 17.0698Z" fill="#ECBE6A"/>
<path fill-rule="evenodd" clip-rule="evenodd" d="M16.8081 20.2827C18.0832 1.67098 44.8265 2.38887 45.7816 20.2827C41.3713 7.81985 20.5753 8.01216 16.8081 20.2827Z" fill="#E9573E"/>
<path fill-rule="evenodd" clip-rule="evenodd" d="M43.8011 25.1952C43.8011 25.1952 41.5047 35.9746 34.1309 40.1269C57.735 33.8481 50.0693 7.59538 40.7492 7.58128C37.8569 -0.33563 16.2201 1.8422 13.2104 17.0961C10.2007 32.3499 23.1655 39.0083 24.1928 39.6215C22.6065 37.3023 21.3299 34.7846 20.3956 32.1325C19.3657 31.5038 18.5988 30.5208 18.2376 29.3666C17.8683 28.2599 17.795 27.0753 18.0249 25.9312C17.2966 25.7993 16.7368 25.6544 16.7368 25.6544C16.6022 23.9723 16.6223 22.2813 16.797 20.603C17.1882 16.6823 18.5918 11.4446 23.6491 8.57404C27.1835 6.56838 34.804 6.00656 39.3918 8.90429C44.7712 12.3014 46.2349 19.6676 45.8647 25.6453L43.8011 25.1952Z" fill="#D6A956"/>
</g>
<defs>
<clipPath id="clip0_1646_5771">
<rect width="62" height="63" fill="white"/>
</clipPath>
</defs>
</svg>
